# xmcd
#
# Track frame offsets:
#	150
#	11460
#	26937
#	42922
#	57592
#	73510
#	91305
#	106482
#	120285
#	133990
#
# Disc length: 1988 seconds
#
# Revision: 3
# Processed by: cddbd v1.5.2PL0 Copyright (c) Steve Scherf et al.
# Submitted via: audiograbber 1.83.01
#
DISCID=8807c20a
DTITLE=Wade Hayes - When The Wrong One Loves You Right
DYEAR=1998
DGENRE=Oldies
TTITLE0=When The Wrong One Loves You Right
TTITLE1=How Do You Sleep At Night
TTITLE2=The Day She Left Tulsa
TTITLE3=Are We Having Fun Yet
TTITLE4=This Is My Heart Talking Now
TTITLE5=One More Night With You
TTITLE6=Summer Was A Bummer
TTITLE7=Tore Up From The Floor Up
TTITLE8=If I Wanted To Forget
TTITLE9=Mine To Lose
EXTD=YEAR: 1998
EXTT0=
EXTT1=
EXTT2=
EXTT3=
EXTT4=
EXTT5=
EXTT6=
EXTT7=
EXTT8=
EXTT9=
PLAYORDER=
